# xmcd
#
# Track frame offsets:
#	150
#	33024
#	69856
#	101950
#	143296
#	163614
#	201059
#
# Disc length: 3326 seconds
#
# Revision: 0
# Processed by: cddbd v1.5.2PL0 Copyright (c) Steve Scherf et al.
# Submitted via: dBpowerAMP V4.0
#
DISCID=500cfc07
DTITLE=No game - No game
DYEAR=2007
DGENRE=Country
TTITLE0=Ba presenta
TTITLE1=Bon Bini
TTITLE2=Mayo dimi kurason
TTITLE3=dushi warda un piesa pami
TTITLE4=marchike
TTITLE5=6.  Nochi a sera
TTITLE6=7. M'a pega
EXTD=No game\n
EXTT0=
EXTT1=
EXTT2=
EXTT3=
EXTT4=
EXTT5=
EXTT6=
PLAYORDER=
